<mxfile host="app.diagrams.net" modified="2023-06-10T06:37:48.431Z" agent="5.0 (Windows NT 10.0; Win64; x64) AppleWebKit/537.36 (KHTML, like Gecko) Chrome/114.0.0.0 Safari/537.36" etag="EdVWOI4tp0BrdUgYF4c4" version="21.0.4" type="github">
  <diagram name="Page-1" id="kOZRg1wBXx_YfrOLIpF-">
    <mxGraphModel dx="1103" dy="606" grid="1" gridSize="10" guides="1" tooltips="1" connect="1" arrows="1" fold="1" page="1" pageScale="1" pageWidth="850" pageHeight="1100" math="0" shadow="0">
      <root>
        <mxCell id="0" />
        <mxCell id="1" parent="0" />
        <mxCell id="Q9uHJYtEhtkp3W4igydJ-3" value="" style="edgeStyle=orthogonalEdgeStyle;rounded=0;orthogonalLoop=1;jettySize=auto;html=1;" edge="1" parent="1" source="Q9uHJYtEhtkp3W4igydJ-1" target="Q9uHJYtEhtkp3W4igydJ-2">
          <mxGeometry relative="1" as="geometry" />
        </mxCell>
        <mxCell id="Q9uHJYtEhtkp3W4igydJ-1" value="start" style="ellipse;whiteSpace=wrap;html=1;fillColor=#1ba1e2;fontColor=#ffffff;strokeColor=#006EAF;" vertex="1" parent="1">
          <mxGeometry x="60" y="40" width="120" height="80" as="geometry" />
        </mxCell>
        <mxCell id="Q9uHJYtEhtkp3W4igydJ-5" value="no" style="edgeStyle=orthogonalEdgeStyle;rounded=0;orthogonalLoop=1;jettySize=auto;html=1;entryX=0;entryY=0.5;entryDx=0;entryDy=0;" edge="1" parent="1" source="Q9uHJYtEhtkp3W4igydJ-2" target="Q9uHJYtEhtkp3W4igydJ-1">
          <mxGeometry relative="1" as="geometry">
            <mxPoint x="120" y="370" as="targetPoint" />
            <Array as="points">
              <mxPoint x="40" y="240" />
              <mxPoint x="40" y="80" />
            </Array>
          </mxGeometry>
        </mxCell>
        <mxCell id="Q9uHJYtEhtkp3W4igydJ-9" value="yes" style="edgeStyle=orthogonalEdgeStyle;rounded=0;orthogonalLoop=1;jettySize=auto;html=1;" edge="1" parent="1" source="Q9uHJYtEhtkp3W4igydJ-2" target="Q9uHJYtEhtkp3W4igydJ-8">
          <mxGeometry relative="1" as="geometry" />
        </mxCell>
        <mxCell id="Q9uHJYtEhtkp3W4igydJ-2" value="create an&lt;br&gt;order" style="rhombus;whiteSpace=wrap;html=1;fillColor=#60a917;strokeColor=#2D7600;fontColor=#ffffff;" vertex="1" parent="1">
          <mxGeometry x="80" y="200" width="80" height="80" as="geometry" />
        </mxCell>
        <mxCell id="Q9uHJYtEhtkp3W4igydJ-11" value="" style="edgeStyle=orthogonalEdgeStyle;rounded=0;orthogonalLoop=1;jettySize=auto;html=1;" edge="1" parent="1" source="Q9uHJYtEhtkp3W4igydJ-8" target="Q9uHJYtEhtkp3W4igydJ-10">
          <mxGeometry relative="1" as="geometry" />
        </mxCell>
        <mxCell id="Q9uHJYtEhtkp3W4igydJ-8" value="display order&lt;br&gt;form" style="shape=parallelogram;perimeter=parallelogramPerimeter;whiteSpace=wrap;html=1;fixedSize=1;fillColor=#a20025;strokeColor=#6F0000;fontColor=#ffffff;" vertex="1" parent="1">
          <mxGeometry x="220" y="210" width="120" height="60" as="geometry" />
        </mxCell>
        <mxCell id="Q9uHJYtEhtkp3W4igydJ-13" value="" style="edgeStyle=orthogonalEdgeStyle;rounded=0;orthogonalLoop=1;jettySize=auto;html=1;" edge="1" parent="1" source="Q9uHJYtEhtkp3W4igydJ-10" target="Q9uHJYtEhtkp3W4igydJ-12">
          <mxGeometry relative="1" as="geometry" />
        </mxCell>
        <mxCell id="Q9uHJYtEhtkp3W4igydJ-10" value="fill the fields&lt;br&gt;and submit" style="shape=parallelogram;perimeter=parallelogramPerimeter;whiteSpace=wrap;html=1;fixedSize=1;fillColor=#a20025;strokeColor=#6F0000;fontColor=#ffffff;" vertex="1" parent="1">
          <mxGeometry x="420" y="210" width="120" height="60" as="geometry" />
        </mxCell>
        <mxCell id="Q9uHJYtEhtkp3W4igydJ-17" value="yes" style="edgeStyle=orthogonalEdgeStyle;rounded=0;orthogonalLoop=1;jettySize=auto;html=1;" edge="1" parent="1" source="Q9uHJYtEhtkp3W4igydJ-12" target="Q9uHJYtEhtkp3W4igydJ-16">
          <mxGeometry relative="1" as="geometry" />
        </mxCell>
        <mxCell id="Q9uHJYtEhtkp3W4igydJ-19" value="no" style="edgeStyle=orthogonalEdgeStyle;rounded=0;orthogonalLoop=1;jettySize=auto;html=1;" edge="1" parent="1" source="Q9uHJYtEhtkp3W4igydJ-12" target="Q9uHJYtEhtkp3W4igydJ-18">
          <mxGeometry relative="1" as="geometry" />
        </mxCell>
        <mxCell id="Q9uHJYtEhtkp3W4igydJ-12" value="confirm the order" style="shape=parallelogram;perimeter=parallelogramPerimeter;whiteSpace=wrap;html=1;fixedSize=1;fillColor=#a20025;strokeColor=#6F0000;fontColor=#ffffff;" vertex="1" parent="1">
          <mxGeometry x="620" y="210" width="120" height="60" as="geometry" />
        </mxCell>
        <mxCell id="Q9uHJYtEhtkp3W4igydJ-22" value="" style="edgeStyle=orthogonalEdgeStyle;rounded=0;orthogonalLoop=1;jettySize=auto;html=1;" edge="1" parent="1" source="Q9uHJYtEhtkp3W4igydJ-16" target="Q9uHJYtEhtkp3W4igydJ-21">
          <mxGeometry relative="1" as="geometry" />
        </mxCell>
        <mxCell id="Q9uHJYtEhtkp3W4igydJ-16" value="make a query to server" style="whiteSpace=wrap;html=1;fillColor=#008a00;strokeColor=#005700;fontColor=#ffffff;" vertex="1" parent="1">
          <mxGeometry x="620" y="350" width="120" height="60" as="geometry" />
        </mxCell>
        <mxCell id="Q9uHJYtEhtkp3W4igydJ-20" style="edgeStyle=orthogonalEdgeStyle;rounded=0;orthogonalLoop=1;jettySize=auto;html=1;exitX=0;exitY=0.5;exitDx=0;exitDy=0;entryX=0.5;entryY=0;entryDx=0;entryDy=0;" edge="1" parent="1" source="Q9uHJYtEhtkp3W4igydJ-18" target="Q9uHJYtEhtkp3W4igydJ-10">
          <mxGeometry relative="1" as="geometry" />
        </mxCell>
        <mxCell id="Q9uHJYtEhtkp3W4igydJ-18" value="add new order" style="shape=parallelogram;perimeter=parallelogramPerimeter;whiteSpace=wrap;html=1;fixedSize=1;fillColor=#a20025;strokeColor=#6F0000;fontColor=#ffffff;" vertex="1" parent="1">
          <mxGeometry x="620" y="70" width="120" height="60" as="geometry" />
        </mxCell>
        <mxCell id="Q9uHJYtEhtkp3W4igydJ-24" value="yes" style="edgeStyle=orthogonalEdgeStyle;rounded=0;orthogonalLoop=1;jettySize=auto;html=1;" edge="1" parent="1" source="Q9uHJYtEhtkp3W4igydJ-21" target="Q9uHJYtEhtkp3W4igydJ-23">
          <mxGeometry relative="1" as="geometry" />
        </mxCell>
        <mxCell id="Q9uHJYtEhtkp3W4igydJ-26" value="no" style="edgeStyle=orthogonalEdgeStyle;rounded=0;orthogonalLoop=1;jettySize=auto;html=1;" edge="1" parent="1" source="Q9uHJYtEhtkp3W4igydJ-21" target="Q9uHJYtEhtkp3W4igydJ-25">
          <mxGeometry relative="1" as="geometry" />
        </mxCell>
        <mxCell id="Q9uHJYtEhtkp3W4igydJ-21" value="is drug available" style="rhombus;whiteSpace=wrap;html=1;fillColor=#60a917;strokeColor=#2D7600;fontColor=#ffffff;" vertex="1" parent="1">
          <mxGeometry x="640" y="480" width="80" height="80" as="geometry" />
        </mxCell>
        <mxCell id="Q9uHJYtEhtkp3W4igydJ-42" value="" style="edgeStyle=orthogonalEdgeStyle;rounded=0;orthogonalLoop=1;jettySize=auto;html=1;" edge="1" parent="1" source="Q9uHJYtEhtkp3W4igydJ-23" target="Q9uHJYtEhtkp3W4igydJ-41">
          <mxGeometry relative="1" as="geometry">
            <Array as="points">
              <mxPoint x="520" y="650" />
            </Array>
          </mxGeometry>
        </mxCell>
        <mxCell id="Q9uHJYtEhtkp3W4igydJ-23" value="display client&lt;br&gt;&amp;nbsp;details form and&lt;br&gt;submit" style="shape=parallelogram;perimeter=parallelogramPerimeter;whiteSpace=wrap;html=1;fixedSize=1;fillColor=#a20025;strokeColor=#6F0000;fontColor=#ffffff;" vertex="1" parent="1">
          <mxGeometry x="460" y="490" width="120" height="60" as="geometry" />
        </mxCell>
        <mxCell id="Q9uHJYtEhtkp3W4igydJ-40" style="edgeStyle=orthogonalEdgeStyle;rounded=0;orthogonalLoop=1;jettySize=auto;html=1;exitX=1;exitY=0.5;exitDx=0;exitDy=0;entryX=0.5;entryY=0;entryDx=0;entryDy=0;" edge="1" parent="1" source="Q9uHJYtEhtkp3W4igydJ-25" target="Q9uHJYtEhtkp3W4igydJ-31">
          <mxGeometry relative="1" as="geometry">
            <Array as="points">
              <mxPoint x="760" y="680" />
              <mxPoint x="760" y="440" />
              <mxPoint x="120" y="440" />
            </Array>
          </mxGeometry>
        </mxCell>
        <mxCell id="Q9uHJYtEhtkp3W4igydJ-25" value="send SMS to client drug is not available" style="shape=process;whiteSpace=wrap;html=1;backgroundOutline=1;fillColor=#008a00;strokeColor=#005700;fontColor=#ffffff;" vertex="1" parent="1">
          <mxGeometry x="620" y="650" width="120" height="60" as="geometry" />
        </mxCell>
        <mxCell id="Q9uHJYtEhtkp3W4igydJ-32" value="" style="edgeStyle=orthogonalEdgeStyle;rounded=0;orthogonalLoop=1;jettySize=auto;html=1;" edge="1" parent="1" source="Q9uHJYtEhtkp3W4igydJ-27" target="Q9uHJYtEhtkp3W4igydJ-31">
          <mxGeometry relative="1" as="geometry" />
        </mxCell>
        <mxCell id="Q9uHJYtEhtkp3W4igydJ-27" value="send client request" style="whiteSpace=wrap;html=1;fillColor=#008a00;strokeColor=#005700;fontColor=#ffffff;" vertex="1" parent="1">
          <mxGeometry x="260" y="490" width="120" height="60" as="geometry" />
        </mxCell>
        <mxCell id="Q9uHJYtEhtkp3W4igydJ-34" style="edgeStyle=orthogonalEdgeStyle;rounded=0;orthogonalLoop=1;jettySize=auto;html=1;entryX=0.5;entryY=0;entryDx=0;entryDy=0;" edge="1" parent="1" source="Q9uHJYtEhtkp3W4igydJ-31" target="Q9uHJYtEhtkp3W4igydJ-33">
          <mxGeometry relative="1" as="geometry" />
        </mxCell>
        <mxCell id="Q9uHJYtEhtkp3W4igydJ-31" value="display progress&lt;br&gt;to client" style="shape=parallelogram;perimeter=parallelogramPerimeter;whiteSpace=wrap;html=1;fixedSize=1;fillColor=#a20025;strokeColor=#6F0000;fontColor=#ffffff;" vertex="1" parent="1">
          <mxGeometry x="60" y="490" width="120" height="60" as="geometry" />
        </mxCell>
        <mxCell id="Q9uHJYtEhtkp3W4igydJ-33" value="end" style="ellipse;whiteSpace=wrap;html=1;fillColor=#1ba1e2;fontColor=#ffffff;strokeColor=#006EAF;" vertex="1" parent="1">
          <mxGeometry x="60" y="620" width="120" height="80" as="geometry" />
        </mxCell>
        <mxCell id="Q9uHJYtEhtkp3W4igydJ-43" value="Done" style="edgeStyle=orthogonalEdgeStyle;rounded=0;orthogonalLoop=1;jettySize=auto;html=1;exitX=0;exitY=0.5;exitDx=0;exitDy=0;entryX=0.5;entryY=1;entryDx=0;entryDy=0;" edge="1" parent="1" source="Q9uHJYtEhtkp3W4igydJ-41" target="Q9uHJYtEhtkp3W4igydJ-27">
          <mxGeometry relative="1" as="geometry">
            <Array as="points">
              <mxPoint x="320" y="650" />
            </Array>
          </mxGeometry>
        </mxCell>
        <mxCell id="Q9uHJYtEhtkp3W4igydJ-44" value="not Done" style="edgeStyle=orthogonalEdgeStyle;rounded=0;orthogonalLoop=1;jettySize=auto;html=1;exitX=0.5;exitY=0;exitDx=0;exitDy=0;entryX=0.5;entryY=0;entryDx=0;entryDy=0;" edge="1" parent="1" source="Q9uHJYtEhtkp3W4igydJ-41" target="Q9uHJYtEhtkp3W4igydJ-23">
          <mxGeometry relative="1" as="geometry" />
        </mxCell>
        <mxCell id="Q9uHJYtEhtkp3W4igydJ-41" value="send to banking portal" style="shape=parallelogram;perimeter=parallelogramPerimeter;whiteSpace=wrap;html=1;fixedSize=1;fillColor=#a20025;strokeColor=#6F0000;fontColor=#ffffff;" vertex="1" parent="1">
          <mxGeometry x="360" y="620" width="120" height="60" as="geometry" />
        </mxCell>
      </root>
    </mxGraphModel>
  </diagram>
</mxfile>
